<mxfile host="app.diagrams.net" modified="2022-04-15T10:19:41.958Z" agent="5.0 (X11)" etag="nEYWg8axt9NNHHVml_vD" version="17.4.3" type="github">
  <diagram id="CxzAvetqkkrdHBWZVYmS" name="Page-1">
    <mxGraphModel dx="416" dy="452" grid="1" gridSize="10" guides="1" tooltips="1" connect="1" arrows="1" fold="1" page="1" pageScale="1" pageWidth="650" pageHeight="400" math="0" shadow="0">
      <root>
        <mxCell id="0" />
        <mxCell id="1" parent="0" />
        <mxCell id="elB4nLdQnV68VaoinqlS-4" style="edgeStyle=orthogonalEdgeStyle;rounded=0;orthogonalLoop=1;jettySize=auto;html=1;exitX=0.5;exitY=1;exitDx=0;exitDy=0;entryX=0.5;entryY=0;entryDx=0;entryDy=0;" edge="1" parent="1" source="elB4nLdQnV68VaoinqlS-2" target="elB4nLdQnV68VaoinqlS-3">
          <mxGeometry relative="1" as="geometry" />
        </mxCell>
        <mxCell id="elB4nLdQnV68VaoinqlS-2" value="Add round key" style="rounded=0;whiteSpace=wrap;html=1;strokeWidth=2;" vertex="1" parent="1">
          <mxGeometry x="60" y="90" width="170" height="20" as="geometry" />
        </mxCell>
        <mxCell id="elB4nLdQnV68VaoinqlS-8" style="edgeStyle=orthogonalEdgeStyle;rounded=0;orthogonalLoop=1;jettySize=auto;html=1;exitX=0.5;exitY=1;exitDx=0;exitDy=0;" edge="1" parent="1" source="elB4nLdQnV68VaoinqlS-3" target="elB4nLdQnV68VaoinqlS-5">
          <mxGeometry relative="1" as="geometry" />
        </mxCell>
        <mxCell id="elB4nLdQnV68VaoinqlS-3" value="Substitute bytes" style="rounded=0;whiteSpace=wrap;html=1;strokeWidth=2;" vertex="1" parent="1">
          <mxGeometry x="60" y="130" width="170" height="20" as="geometry" />
        </mxCell>
        <mxCell id="elB4nLdQnV68VaoinqlS-9" style="edgeStyle=orthogonalEdgeStyle;rounded=0;orthogonalLoop=1;jettySize=auto;html=1;exitX=0.5;exitY=1;exitDx=0;exitDy=0;" edge="1" parent="1" source="elB4nLdQnV68VaoinqlS-5" target="elB4nLdQnV68VaoinqlS-6">
          <mxGeometry relative="1" as="geometry" />
        </mxCell>
        <mxCell id="elB4nLdQnV68VaoinqlS-5" value="Shift rows" style="rounded=0;whiteSpace=wrap;html=1;strokeWidth=2;" vertex="1" parent="1">
          <mxGeometry x="60" y="170" width="170" height="20" as="geometry" />
        </mxCell>
        <mxCell id="elB4nLdQnV68VaoinqlS-10" style="edgeStyle=orthogonalEdgeStyle;rounded=0;orthogonalLoop=1;jettySize=auto;html=1;exitX=0.5;exitY=1;exitDx=0;exitDy=0;entryX=0.5;entryY=0;entryDx=0;entryDy=0;" edge="1" parent="1" source="elB4nLdQnV68VaoinqlS-6" target="elB4nLdQnV68VaoinqlS-7">
          <mxGeometry relative="1" as="geometry" />
        </mxCell>
        <mxCell id="elB4nLdQnV68VaoinqlS-6" value="Mix columns" style="rounded=0;whiteSpace=wrap;html=1;strokeWidth=2;" vertex="1" parent="1">
          <mxGeometry x="60" y="210" width="170" height="20" as="geometry" />
        </mxCell>
        <mxCell id="elB4nLdQnV68VaoinqlS-11" style="edgeStyle=orthogonalEdgeStyle;rounded=0;orthogonalLoop=1;jettySize=auto;html=1;exitX=0.5;exitY=1;exitDx=0;exitDy=0;" edge="1" parent="1" source="elB4nLdQnV68VaoinqlS-7">
          <mxGeometry relative="1" as="geometry">
            <mxPoint x="145" y="300" as="targetPoint" />
          </mxGeometry>
        </mxCell>
        <mxCell id="elB4nLdQnV68VaoinqlS-7" value="Add round key" style="rounded=0;whiteSpace=wrap;html=1;strokeWidth=2;" vertex="1" parent="1">
          <mxGeometry x="60" y="250" width="170" height="20" as="geometry" />
        </mxCell>
        <mxCell id="elB4nLdQnV68VaoinqlS-18" value="" style="group" vertex="1" connectable="0" parent="1">
          <mxGeometry x="125" y="290" width="40" height="60" as="geometry" />
        </mxCell>
        <mxCell id="elB4nLdQnV68VaoinqlS-15" value="" style="shape=waypoint;sketch=0;size=6;pointerEvents=1;points=[];fillColor=none;resizable=0;rotatable=0;perimeter=centerPerimeter;snapToPoint=1;fontSize=25;strokeColor=default;strokeWidth=2;" vertex="1" parent="elB4nLdQnV68VaoinqlS-18">
          <mxGeometry width="40" height="40" as="geometry" />
        </mxCell>
        <mxCell id="elB4nLdQnV68VaoinqlS-16" value="" style="shape=waypoint;sketch=0;size=6;pointerEvents=1;points=[];fillColor=none;resizable=0;rotatable=0;perimeter=centerPerimeter;snapToPoint=1;fontSize=25;strokeColor=default;strokeWidth=2;" vertex="1" parent="elB4nLdQnV68VaoinqlS-18">
          <mxGeometry y="10" width="40" height="40" as="geometry" />
        </mxCell>
        <mxCell id="elB4nLdQnV68VaoinqlS-17" value="" style="shape=waypoint;sketch=0;size=6;pointerEvents=1;points=[];fillColor=none;resizable=0;rotatable=0;perimeter=centerPerimeter;snapToPoint=1;fontSize=25;strokeColor=default;strokeWidth=2;" vertex="1" parent="elB4nLdQnV68VaoinqlS-18">
          <mxGeometry y="20" width="40" height="40" as="geometry" />
        </mxCell>
        <mxCell id="elB4nLdQnV68VaoinqlS-19" style="edgeStyle=orthogonalEdgeStyle;rounded=0;orthogonalLoop=1;jettySize=auto;html=1;exitX=0.5;exitY=1;exitDx=0;exitDy=0;" edge="1" source="elB4nLdQnV68VaoinqlS-20" target="elB4nLdQnV68VaoinqlS-22" parent="1">
          <mxGeometry relative="1" as="geometry" />
        </mxCell>
        <mxCell id="elB4nLdQnV68VaoinqlS-20" value="Substitute bytes" style="rounded=0;whiteSpace=wrap;html=1;strokeWidth=2;" vertex="1" parent="1">
          <mxGeometry x="60" y="360" width="170" height="20" as="geometry" />
        </mxCell>
        <mxCell id="elB4nLdQnV68VaoinqlS-21" style="edgeStyle=orthogonalEdgeStyle;rounded=0;orthogonalLoop=1;jettySize=auto;html=1;exitX=0.5;exitY=1;exitDx=0;exitDy=0;" edge="1" source="elB4nLdQnV68VaoinqlS-22" target="elB4nLdQnV68VaoinqlS-24" parent="1">
          <mxGeometry relative="1" as="geometry" />
        </mxCell>
        <mxCell id="elB4nLdQnV68VaoinqlS-22" value="Shift rows" style="rounded=0;whiteSpace=wrap;html=1;strokeWidth=2;" vertex="1" parent="1">
          <mxGeometry x="60" y="400" width="170" height="20" as="geometry" />
        </mxCell>
        <mxCell id="elB4nLdQnV68VaoinqlS-23" style="edgeStyle=orthogonalEdgeStyle;rounded=0;orthogonalLoop=1;jettySize=auto;html=1;exitX=0.5;exitY=1;exitDx=0;exitDy=0;entryX=0.5;entryY=0;entryDx=0;entryDy=0;" edge="1" source="elB4nLdQnV68VaoinqlS-24" target="elB4nLdQnV68VaoinqlS-25" parent="1">
          <mxGeometry relative="1" as="geometry" />
        </mxCell>
        <mxCell id="elB4nLdQnV68VaoinqlS-24" value="Mix columns" style="rounded=0;whiteSpace=wrap;html=1;strokeWidth=2;" vertex="1" parent="1">
          <mxGeometry x="60" y="440" width="170" height="20" as="geometry" />
        </mxCell>
        <mxCell id="elB4nLdQnV68VaoinqlS-37" style="edgeStyle=orthogonalEdgeStyle;rounded=0;orthogonalLoop=1;jettySize=auto;html=1;exitX=0.5;exitY=1;exitDx=0;exitDy=0;entryX=0.5;entryY=0;entryDx=0;entryDy=0;fontSize=25;" edge="1" parent="1" source="elB4nLdQnV68VaoinqlS-25" target="elB4nLdQnV68VaoinqlS-31">
          <mxGeometry relative="1" as="geometry" />
        </mxCell>
        <mxCell id="elB4nLdQnV68VaoinqlS-25" value="Add round key" style="rounded=0;whiteSpace=wrap;html=1;strokeWidth=2;" vertex="1" parent="1">
          <mxGeometry x="60" y="480" width="170" height="20" as="geometry" />
        </mxCell>
        <mxCell id="elB4nLdQnV68VaoinqlS-29" style="edgeStyle=orthogonalEdgeStyle;rounded=0;orthogonalLoop=1;jettySize=auto;html=1;exitX=0.375;exitY=1;exitDx=0;exitDy=0;entryX=0.5;entryY=0;entryDx=0;entryDy=0;fontSize=25;exitPerimeter=0;" edge="1" parent="1" source="elB4nLdQnV68VaoinqlS-17" target="elB4nLdQnV68VaoinqlS-20">
          <mxGeometry relative="1" as="geometry" />
        </mxCell>
        <mxCell id="elB4nLdQnV68VaoinqlS-30" style="edgeStyle=orthogonalEdgeStyle;rounded=0;orthogonalLoop=1;jettySize=auto;html=1;exitX=0.5;exitY=1;exitDx=0;exitDy=0;" edge="1" source="elB4nLdQnV68VaoinqlS-31" target="elB4nLdQnV68VaoinqlS-33" parent="1">
          <mxGeometry relative="1" as="geometry" />
        </mxCell>
        <mxCell id="elB4nLdQnV68VaoinqlS-31" value="Substitute bytes" style="rounded=0;whiteSpace=wrap;html=1;strokeWidth=2;" vertex="1" parent="1">
          <mxGeometry x="60" y="530" width="170" height="20" as="geometry" />
        </mxCell>
        <mxCell id="elB4nLdQnV68VaoinqlS-32" style="edgeStyle=orthogonalEdgeStyle;rounded=0;orthogonalLoop=1;jettySize=auto;html=1;exitX=0.5;exitY=1;exitDx=0;exitDy=0;entryX=0.5;entryY=0;entryDx=0;entryDy=0;" edge="1" source="elB4nLdQnV68VaoinqlS-33" target="elB4nLdQnV68VaoinqlS-36" parent="1">
          <mxGeometry relative="1" as="geometry">
            <mxPoint x="145" y="610" as="targetPoint" />
          </mxGeometry>
        </mxCell>
        <mxCell id="elB4nLdQnV68VaoinqlS-33" value="Shift rows" style="rounded=0;whiteSpace=wrap;html=1;strokeWidth=2;" vertex="1" parent="1">
          <mxGeometry x="60" y="570" width="170" height="20" as="geometry" />
        </mxCell>
        <mxCell id="elB4nLdQnV68VaoinqlS-36" value="Add round key" style="rounded=0;whiteSpace=wrap;html=1;strokeWidth=2;" vertex="1" parent="1">
          <mxGeometry x="60" y="610" width="170" height="20" as="geometry" />
        </mxCell>
        <mxCell id="elB4nLdQnV68VaoinqlS-53" style="edgeStyle=orthogonalEdgeStyle;rounded=0;orthogonalLoop=1;jettySize=auto;html=1;exitX=0.5;exitY=0;exitDx=0;exitDy=0;entryX=0.45;entryY=1.05;entryDx=0;entryDy=0;entryPerimeter=0;fontSize=14;" edge="1" parent="1" source="elB4nLdQnV68VaoinqlS-38" target="elB4nLdQnV68VaoinqlS-51">
          <mxGeometry relative="1" as="geometry" />
        </mxCell>
        <mxCell id="elB4nLdQnV68VaoinqlS-38" value="Add round key" style="rounded=0;whiteSpace=wrap;html=1;strokeWidth=2;" vertex="1" parent="1">
          <mxGeometry x="390" y="90" width="170" height="20" as="geometry" />
        </mxCell>
        <mxCell id="elB4nLdQnV68VaoinqlS-50" style="edgeStyle=orthogonalEdgeStyle;rounded=0;orthogonalLoop=1;jettySize=auto;html=1;exitX=0.5;exitY=0;exitDx=0;exitDy=0;entryX=0.5;entryY=1;entryDx=0;entryDy=0;fontSize=25;" edge="1" parent="1" source="elB4nLdQnV68VaoinqlS-39" target="elB4nLdQnV68VaoinqlS-38">
          <mxGeometry relative="1" as="geometry" />
        </mxCell>
        <mxCell id="elB4nLdQnV68VaoinqlS-39" value="Inverse sub bytes" style="rounded=0;whiteSpace=wrap;html=1;strokeWidth=2;" vertex="1" parent="1">
          <mxGeometry x="390" y="130" width="170" height="20" as="geometry" />
        </mxCell>
        <mxCell id="elB4nLdQnV68VaoinqlS-49" style="edgeStyle=orthogonalEdgeStyle;rounded=0;orthogonalLoop=1;jettySize=auto;html=1;exitX=0.5;exitY=0;exitDx=0;exitDy=0;entryX=0.5;entryY=1;entryDx=0;entryDy=0;fontSize=25;" edge="1" parent="1" source="elB4nLdQnV68VaoinqlS-40" target="elB4nLdQnV68VaoinqlS-39">
          <mxGeometry relative="1" as="geometry" />
        </mxCell>
        <mxCell id="elB4nLdQnV68VaoinqlS-40" value="Inverse shift rows" style="rounded=0;whiteSpace=wrap;html=1;strokeWidth=2;" vertex="1" parent="1">
          <mxGeometry x="390" y="170" width="170" height="20" as="geometry" />
        </mxCell>
        <mxCell id="elB4nLdQnV68VaoinqlS-48" style="edgeStyle=orthogonalEdgeStyle;rounded=0;orthogonalLoop=1;jettySize=auto;html=1;exitX=0.5;exitY=0;exitDx=0;exitDy=0;fontSize=25;" edge="1" parent="1" source="elB4nLdQnV68VaoinqlS-41" target="elB4nLdQnV68VaoinqlS-40">
          <mxGeometry relative="1" as="geometry" />
        </mxCell>
        <mxCell id="elB4nLdQnV68VaoinqlS-41" value="Inverse mix cols" style="rounded=0;whiteSpace=wrap;html=1;strokeWidth=2;" vertex="1" parent="1">
          <mxGeometry x="390" y="210" width="170" height="20" as="geometry" />
        </mxCell>
        <mxCell id="elB4nLdQnV68VaoinqlS-47" style="edgeStyle=orthogonalEdgeStyle;rounded=0;orthogonalLoop=1;jettySize=auto;html=1;exitX=0.5;exitY=0;exitDx=0;exitDy=0;entryX=0.5;entryY=1;entryDx=0;entryDy=0;fontSize=25;" edge="1" parent="1" source="elB4nLdQnV68VaoinqlS-42" target="elB4nLdQnV68VaoinqlS-41">
          <mxGeometry relative="1" as="geometry" />
        </mxCell>
        <mxCell id="elB4nLdQnV68VaoinqlS-42" value="Add round key" style="rounded=0;whiteSpace=wrap;html=1;strokeWidth=2;" vertex="1" parent="1">
          <mxGeometry x="390" y="250" width="170" height="20" as="geometry" />
        </mxCell>
        <mxCell id="elB4nLdQnV68VaoinqlS-46" style="edgeStyle=orthogonalEdgeStyle;rounded=0;orthogonalLoop=1;jettySize=auto;html=1;exitX=0.5;exitY=0;exitDx=0;exitDy=0;entryX=0.5;entryY=1;entryDx=0;entryDy=0;fontSize=25;" edge="1" parent="1" source="elB4nLdQnV68VaoinqlS-43" target="elB4nLdQnV68VaoinqlS-42">
          <mxGeometry relative="1" as="geometry" />
        </mxCell>
        <mxCell id="elB4nLdQnV68VaoinqlS-43" value="Inverse sub bytes" style="rounded=0;whiteSpace=wrap;html=1;strokeWidth=2;" vertex="1" parent="1">
          <mxGeometry x="390" y="290" width="170" height="20" as="geometry" />
        </mxCell>
        <mxCell id="elB4nLdQnV68VaoinqlS-45" style="edgeStyle=orthogonalEdgeStyle;rounded=0;orthogonalLoop=1;jettySize=auto;html=1;exitX=0.5;exitY=0;exitDx=0;exitDy=0;entryX=0.5;entryY=1;entryDx=0;entryDy=0;fontSize=25;" edge="1" parent="1" source="elB4nLdQnV68VaoinqlS-44" target="elB4nLdQnV68VaoinqlS-43">
          <mxGeometry relative="1" as="geometry" />
        </mxCell>
        <mxCell id="elB4nLdQnV68VaoinqlS-44" value="Inverse shift rows" style="rounded=0;whiteSpace=wrap;html=1;strokeWidth=2;" vertex="1" parent="1">
          <mxGeometry x="390" y="330" width="170" height="20" as="geometry" />
        </mxCell>
        <mxCell id="elB4nLdQnV68VaoinqlS-51" value="&lt;font style=&quot;font-size: 14px&quot;&gt;plaintext&lt;br&gt;&lt;/font&gt;" style="text;html=1;align=center;verticalAlign=middle;resizable=0;points=[];autosize=1;strokeColor=none;fillColor=none;fontSize=25;" vertex="1" parent="1">
          <mxGeometry x="440" y="30" width="80" height="40" as="geometry" />
        </mxCell>
      </root>
    </mxGraphModel>
  </diagram>
</mxfile>
